<?xml version="1.0" encoding="UTF-8" standalone="no"?>
<!-- Created with Inkscape (http://www.inkscape.org/) -->

<svg
   width="34.400047mm"
   height="9.1016216mm"
   viewBox="0 0 34.400047 9.1016216"
   version="1.1"
   id="svg5"
   inkscape:version="1.1.2 (b8e25be833, 2022-02-05)"
   sodipodi:docname="signature-purple.svg"
   xmlns:inkscape="http://www.inkscape.org/namespaces/inkscape"
   xmlns:sodipodi="http://sodipodi.sourceforge.net/DTD/sodipodi-0.dtd"
   xmlns="http://www.w3.org/2000/svg"
   xmlns:svg="http://www.w3.org/2000/svg">
  <sodipodi:namedview
     id="namedview7"
     pagecolor="#505050"
     bordercolor="#eeeeee"
     borderopacity="1"
     inkscape:pageshadow="0"
     inkscape:pageopacity="0"
     inkscape:pagecheckerboard="0"
     inkscape:document-units="mm"
     showgrid="false"
     showguides="false"
     inkscape:zoom="4.8383089"
     inkscape:cx="77.609762"
     inkscape:cy="50.430844"
     inkscape:window-width="1920"
     inkscape:window-height="1017"
     inkscape:window-x="-8"
     inkscape:window-y="-8"
     inkscape:window-maximized="1"
     inkscape:current-layer="layer1" />
  <defs
     id="defs2">
    <rect
       x="72.94352"
       y="325.54422"
       width="614.6167"
       height="285.02005"
       id="rect1551" />
  </defs>
  <g
     inkscape:label="Layer 1"
     inkscape:groupmode="layer"
     id="layer1"
     transform="translate(-91.78553,-104.12409)">
    <text
       xml:space="preserve"
       transform="scale(0.26458333)"
       id="text1549"
       style="font-style:normal;font-weight:normal;font-size:40px;line-height:1.25;font-family:sans-serif;white-space:pre;shape-inside:url(#rect1551);fill:#000000;fill-opacity:1;stroke:none" />
    <g
       aria-label="Johnny L.  de Alba"
       id="text2041"
       style="font-size:4.23333px;line-height:1.25;fill:#ffffff;stroke:#b2a2bb;stroke-width:0.265;stroke-opacity:1">
      <path
         d="m 96.342918,106.21502 q 0.0085,-0.0127 0,-0.0296 -0.0085,-0.0169 -0.02963,-0.0296 -0.01693,-0.0127 -0.0381,-0.0169 -0.02117,-0.004 -0.0381,0.0127 -0.0254,0.0296 -0.06773,0.0593 -0.0381,0.0254 -0.09737,0.0339 -0.07197,0.0254 -0.220133,0.055 -0.143934,0.0254 -0.334433,0.0762 -0.1905,0.0466 -0.4064,0.12276 -0.2159,0.0762 -0.427566,0.19897 -0.211667,0.11853 -0.4064,0.2921 -0.1905,0.16933 -0.3302,0.41063 -0.08043,0.1397 -0.122766,0.29633 -0.0381,0.1524 -0.04233,0.3048 0,0.1524 0.02963,0.2921 0.03387,0.13547 0.09313,0.2413 0.02117,0.0381 0.0381,0.0296 0.01693,-0.0127 -0.0042,-0.0466 -0.0635,-0.127 -0.06773,-0.2667 -0.0042,-0.1397 0.0254,-0.27517 0.03387,-0.1397 0.09313,-0.26246 0.05927,-0.127 0.122766,-0.2286 0.1524,-0.254 0.3683,-0.45297 0.2159,-0.2032 0.469899,-0.34713 0.258233,-0.14393 0.541867,-0.2159 0.283633,-0.0762 0.563032,-0.0762 -0.0889,0.20743 -0.211666,0.46567 -0.122767,0.25823 -0.262466,0.53339 -0.135467,0.27517 -0.283634,0.5588 -0.143933,0.28364 -0.279399,0.54187 -0.2286,0.072 -0.4953,0.18203 -0.2667,0.10584 -0.546099,0.24977 -0.2794,0.1397 -0.563033,0.30903 -0.2794,0.16934 -0.529167,0.3556 -0.249766,0.1905 -0.461432,0.3937 -0.211667,0.2032 -0.351367,0.41064 -0.127,0.18626 -0.148166,0.33866 -0.02117,0.15664 0.04233,0.25824 0.05927,0.10159 0.194733,0.13969 0.135467,0.0381 0.325966,-0.008 0.2667,-0.0635 0.4953,-0.17357 0.2286,-0.10583 0.427566,-0.24553 0.2032,-0.1397 0.376767,-0.3048 0.1778,-0.1651 0.330199,-0.3429 0.300567,-0.3556 0.550333,-0.73237 0.249767,-0.381 0.4826,-0.77893 0.03387,-0.0127 0.07197,-0.0254 0.0381,-0.0169 0.05503,-0.0212 0.03387,-0.008 0.03387,-0.0296 0.0042,-0.0212 -0.02963,-0.0212 -0.02963,0 -0.0381,-0.0254 -0.0042,-0.0296 0.0127,-0.0635 0.105833,-0.2032 0.245533,-0.46143 0.1397,-0.26247 0.283633,-0.5461 0.148167,-0.28787 0.2921,-0.57573 0.143933,-0.2921 0.2667,-0.5588 z m -1.358899,2.3622 q -0.08467,0.13546 -0.207433,0.3302 -0.118533,0.1905 -0.254,0.3937 -0.131233,0.19896 -0.262466,0.381 -0.131234,0.18626 -0.237067,0.3048 -0.1397,0.16086 -0.3048,0.32173 -0.160866,0.16087 -0.351366,0.30057 -0.1905,0.14393 -0.410633,0.254 -0.220133,0.1143 -0.474133,0.18203 -0.160866,0.0423 -0.275166,0.0212 -0.1143,-0.0212 -0.160867,-0.0974 -0.0508,-0.0762 -0.02117,-0.20743 0.02963,-0.13124 0.156633,-0.30904 0.224366,-0.30903 0.554566,-0.5969 0.334433,-0.28786 0.715433,-0.5334 0.380999,-0.24553 0.778932,-0.43603 0.397933,-0.1905 0.753533,-0.30903 z"
         style="font-family:Scriptina;-inkscape-font-specification:Scriptina;stroke:#b2a2bb;stroke-opacity:1"
         id="path40139" />
      <path
         d="m 95.37772,109.43658 q 0.372533,-0.055 0.867833,-0.4826 0.254,-0.2159 0.376766,-0.39793 0.127,-0.18627 0.1397,-0.34713 0,-0.008 -0.0042,-0.0212 -0.0042,-0.0127 -0.0085,-0.0254 -0.0085,-0.0127 0,-0.0254 0.0381,-0.0508 0.169333,-0.0508 0.0635,0 0.0635,-0.0254 0,-0.008 -0.0635,-0.0169 -0.1778,-0.004 -0.317499,-0.008 -0.135467,-0.004 -0.232834,-0.008 -0.0085,-0.004 -0.01693,-0.008 -0.0042,-0.004 -0.0127,-0.008 -0.122766,-0.0804 -0.1905,-0.0762 -0.09313,0.004 -0.186266,0.0931 -0.02963,0.0169 -0.04657,0.0169 -0.0042,0 -0.160866,0.004 -0.09737,0.004 -0.110067,0.0254 -0.0127,0.0212 -0.0127,0.0339 0,0.0254 0.0381,0.055 0.0381,0.0254 0.0762,0.0466 0.0254,0.008 0.0085,0.0381 -0.5588,0.6858 -0.567267,1.03716 0,0.0339 0.01693,0.0635 0.02117,0.0296 0.04657,0.0508 0.02963,0.0212 0.0635,0.0296 0.03387,0.0127 0.0635,0.008 z m -0.05927,-0.22436 q 0.245533,-0.5842 0.698499,-1.0033 0.0635,-0.0423 0.07197,-0.0381 0.0762,-0.0296 0.1651,-0.0381 0.0889,-0.0127 0.190499,0 0.1905,0.0212 0.160867,0.14816 -0.0635,0.30904 -0.486833,0.6858 -0.402166,0.3683 -0.690033,0.41487 -0.135466,0.0254 -0.135466,-0.0762 0,-0.0466 0.0254,-0.0931 z"
         style="font-family:Scriptina;-inkscape-font-specification:Scriptina;stroke:#b2a2bb;stroke-opacity:1"
         id="path40141" />
      <path
         d="m 97.540952,107.54428 q 0.06773,0.004 0.1397,0.008 0.07197,0 0.143933,0 1.650999,0 3.352795,-0.8001 0.46567,-0.2159 0.6985,-0.52493 0.2159,-0.2794 0.2159,-0.59267 0,-0.41063 -0.34713,-0.70696 -0.36407,-0.3048 -0.90593,-0.3048 -0.32597,0 -0.65617,0.11853 -0.618066,0.2159 -1.214966,0.75777 -0.592666,0.53763 -1.185332,1.43086 -0.414866,0.0889 -0.622299,0.30903 -0.0127,0.0169 -0.02117,0.0339 -0.0085,0.0169 -0.0085,0.0423 0,0.0593 0.04657,0.12277 0.04657,0.0635 0.105833,0.0762 0.0381,0.008 0.06773,0.0127 0.03387,0.004 0.05503,0.008 -0.3048,0.52493 -0.541867,0.96096 -0.232833,0.4318 -0.402166,0.79164 -0.0042,0.0127 -0.0042,0.0339 0,0.0677 0.03387,0.0677 0.0127,0 0.02117,-0.0212 0.0381,-0.0508 0.04657,-0.0339 0.1905,-0.2286 0.546099,-0.5715 0.423333,-0.4064 0.6604,-0.5334 0.04657,-0.0296 0.08467,-0.0296 0.0635,0 0.0635,0.0593 0,0.0339 -0.01693,0.055 -0.372533,0.49107 -0.452966,0.8255 -0.02117,0.0974 0.0762,0.17357 0.08043,0.0762 0.156633,0.0762 0.245533,0 0.795866,-0.44874 l 0.02963,-0.0296 q -0.0042,-0.004 -0.0042,-0.004 0,-0.004 -0.0042,-0.008 -0.0042,0.004 -0.01693,0.008 -0.0085,0.004 -0.02117,0.0127 -0.469899,0.3556 -0.677332,0.3556 -0.1143,0 -0.1143,-0.11007 0,-0.1524 0.207433,-0.52917 0.0889,-0.15663 0.169333,-0.2794 0.08043,-0.127 0.1524,-0.2159 0.0042,-0.004 0.0042,-0.0212 0,-0.0339 -0.0381,-0.0635 -0.0381,-0.0339 -0.0635,-0.0296 -0.148166,0.0381 -0.165099,0.0593 -0.1397,0.0127 -0.529167,0.32173 -0.160866,0.13547 -0.313266,0.27094 -0.1524,0.13546 -0.287867,0.27093 -0.05927,0.0593 -0.09313,0.0974 -0.03387,0.0381 -0.05503,0.055 0.237066,-0.4318 0.4572,-0.81703 0.220133,-0.38524 0.431799,-0.74084 z m 0.0381,-0.072 q 0.618066,-1.04987 1.269999,-1.7145 0.651933,-0.66887 1.363129,-0.9652 0.2921,-0.12277 0.60114,-0.12277 0.47413,0 0.82973,0.254 0.3556,0.2413 0.3556,0.6096 0,0.56304 -0.88053,1.07527 -0.41487,0.2413 -0.85937,0.41487 -0.4445,0.17356 -0.922866,0.28786 -0.376766,0.0847 -0.736599,0.13123 -0.3556,0.0423 -0.706966,0.0423 -0.08467,0 -0.1651,-0.004 -0.0762,-0.004 -0.148167,-0.008 z m -0.131233,-0.008 q -0.0127,0 -0.0508,-0.004 -0.03387,-0.004 -0.09313,-0.0127 -0.09313,-0.0127 -0.09313,-0.0847 0,-0.0466 0.03387,-0.0804 0.08467,-0.0974 0.207433,-0.17357 0.127,-0.0804 0.3048,-0.13123 -0.0762,0.11853 -0.156633,0.2413 -0.0762,0.12276 -0.1524,0.24553 z"
         style="font-family:Scriptina;-inkscape-font-specification:Scriptina;stroke:#b2a2bb;stroke-opacity:1"
         id="path40143" />
      <path
         d="m 98.345286,109.26302 q 0.173566,-0.0381 0.2159,-0.0931 0.249766,-0.2921 0.486833,-0.5207 0.241299,-0.2286 0.482599,-0.39793 0.03387,-0.0212 0.06773,-0.0212 0.0762,0 0.0762,0.0677 0,0.0254 -0.0127,0.0423 -0.122766,0.16933 -0.232833,0.35137 -0.105833,0.1778 -0.2032,0.37253 -0.241299,0.46143 -0.266699,0.76623 -0.02117,0.27094 0.09737,0.39794 0.110067,0.11006 0.2794,0.0931 0.474133,-0.0508 0.880535,-0.45297 0.14816,-0.14816 0.24553,-0.28363 0.0974,-0.13547 0.13547,-0.25823 0.0254,-0.0762 0.0254,-0.12277 0,-0.0974 -0.072,-0.0974 -0.0296,0 -0.0677,0.0169 -0.0339,0.0169 -0.0339,0.0423 0,0.0127 0.0169,0.0127 0.0212,0 0.0466,0.008 0.0254,0.004 0.0423,0.0254 0.0212,0.0169 0.0212,0.0593 0,0.20744 -0.40217,0.55034 -0.364062,0.30903 -0.605362,0.37676 -0.05503,0.0169 -0.122766,0.0169 -0.143934,0 -0.232834,-0.0931 -0.09737,-0.10583 -0.08043,-0.30056 0.01693,-0.29634 0.249767,-0.79587 0.241299,-0.50377 0.541866,-0.889 0.0635,-0.0762 0.0042,-0.0974 -0.05503,-0.0254 -0.148166,0.0169 -0.04657,0.0169 -0.105834,0.0677 -0.110066,0.0423 -0.427566,0.29633 -0.135467,0.11007 -0.2667,0.22437 -0.127,0.11007 -0.245533,0.22437 -0.0254,0.0296 -0.0508,0.0296 -0.03387,0 -0.03387,-0.0466 0,-0.0339 0.01693,-0.055 0.08467,-0.1905 0.198966,-0.37253 0.118534,-0.18627 0.2794,-0.37254 0.0127,-0.0127 0.0127,-0.0296 -0.0042,-0.004 -0.02963,0 -0.04657,0.008 -0.07197,0.0212 -0.02117,0.0127 -0.03387,0.0339 -0.08467,0.1016 -0.182034,0.23707 -0.09737,0.13123 -0.207433,0.30057 -0.232833,0.3556 -0.3302,0.56303 -0.0254,0.0508 -0.0085,0.0677 0.0042,0.0254 0.0508,0.0169 z"
         style="font-family:Scriptina;-inkscape-font-specification:Scriptina;stroke:#b2a2bb;stroke-opacity:1"
         id="path40145" />
      <path
         d="m 99.70842,109.26302 q 0.173567,-0.0381 0.2159,-0.0931 0.24977,-0.2921 0.48683,-0.5207 0.2413,-0.2286 0.4826,-0.39793 0.0339,-0.0212 0.0677,-0.0212 0.0762,0 0.0762,0.0677 0,0.0254 -0.0127,0.0423 -0.12277,0.16933 -0.23284,0.35137 -0.10583,0.1778 -0.2032,0.37253 -0.2413,0.46143 -0.2667,0.76623 -0.0212,0.27094 0.0974,0.39794 0.11007,0.11006 0.2794,0.0931 0.47413,-0.0508 0.88053,-0.45297 0.14817,-0.14816 0.24554,-0.28363 0.0974,-0.13547 0.13546,-0.25823 0.0254,-0.0762 0.0254,-0.12277 0,-0.0974 -0.072,-0.0974 -0.0296,0 -0.0677,0.0169 -0.0339,0.0169 -0.0339,0.0423 0,0.0127 0.0169,0.0127 0.0212,0 0.0466,0.008 0.0254,0.004 0.0423,0.0254 0.0212,0.0169 0.0212,0.0593 0,0.20744 -0.40216,0.55034 -0.36407,0.30903 -0.60537,0.37676 -0.055,0.0169 -0.12276,0.0169 -0.14394,0 -0.23284,-0.0931 -0.0974,-0.10583 -0.0804,-0.30056 0.0169,-0.29634 0.24977,-0.79587 0.2413,-0.50377 0.54186,-0.889 0.0635,-0.0762 0.004,-0.0974 -0.055,-0.0254 -0.14817,0.0169 -0.0466,0.0169 -0.10583,0.0677 -0.11007,0.0423 -0.42757,0.29633 -0.13547,0.11007 -0.2667,0.22437 -0.127,0.11007 -0.24553,0.22437 -0.0254,0.0296 -0.0508,0.0296 -0.0339,0 -0.0339,-0.0466 0,-0.0339 0.0169,-0.055 0.0847,-0.1905 0.19897,-0.37253 0.11853,-0.18627 0.2794,-0.37254 0.0127,-0.0127 0.0127,-0.0296 -0.004,-0.004 -0.0296,0 -0.0466,0.008 -0.072,0.0212 -0.0212,0.0127 -0.0339,0.0339 -0.0847,0.1016 -0.18203,0.23707 -0.0974,0.13123 -0.207433,0.30057 -0.232834,0.3556 -0.3302,0.56303 -0.0254,0.0508 -0.0085,0.0677 0.0042,0.0254 0.0508,0.0169 z"
         style="font-family:Scriptina;-inkscape-font-specification:Scriptina;stroke:#b2a2bb;stroke-opacity:1"
         id="path40147" />
      <path
         d="m 102.14258,109.36462 q -0.635,0.12276 -1.23613,0.30056 -0.60537,0.1778 -1.193801,0.4064 -1.706032,0.6731 -2.031998,1.43087 -0.0635,0.1524 -0.0635,0.3175 0,0.49953 0.512233,0.9017 0.507999,0.4064 1.117599,0.3683 1.777997,-0.1143 3.026827,-3.67453 0.48684,-0.1016 1.25307,-0.1016 0.0974,0 0.17357,0.004 0.0804,0 0.1397,0.004 0.20743,0.0169 0.20743,0.16934 0,0.18203 -0.24977,0.4191 -0.0423,0.0296 -0.0423,0.055 0,0.004 0.008,0.004 0.0254,0 0.0593,-0.0339 0.22014,-0.17357 0.27517,-0.2794 0.0254,-0.0381 0.0254,-0.0931 0,-0.055 -0.0254,-0.10583 -0.0254,-0.0508 -0.0677,-0.0931 -0.0381,-0.0423 -0.0889,-0.072 -0.0466,-0.0296 -0.0931,-0.0381 -0.1143,-0.0254 -0.32173,-0.0254 -0.58843,0 -1.2319,0.11853 0.18203,-0.5461 0.2667,-0.8509 0.0212,-0.0381 0.0339,-0.0593 0.0169,-0.0254 0.0339,-0.0466 0.008,-0.0423 -0.0296,-0.0804 -0.0339,-0.0381 -0.10583,-0.0339 -0.0296,0.004 -0.0593,0.0339 -0.0254,0.0254 -0.0466,0.0635 -0.0593,0.055 -0.16086,0.13123 -0.0974,0.0762 -0.23707,0.17357 -0.1778,0.12276 -0.3175,0.2032 -0.13547,0.0762 -0.23283,0.1143 -0.0339,0.0127 -0.0762,0 -0.0339,-0.0127 -0.0339,-0.055 0,-0.0212 0.0127,-0.055 0.0804,-0.16087 0.254,-0.41487 0.20743,-0.2921 0.29633,-0.3302 -0.008,-0.072 -0.0677,-0.0677 -0.0339,0.004 -0.18627,0.072 -0.14393,0.0635 -0.16086,0.0931 -0.0127,0.0254 -0.008,0.0804 0.008,0.055 0,0.072 -0.35983,0.65193 -0.38523,0.7366 -0.008,0.0296 0.0169,0.0593 0.0254,0.0296 0.0635,0.0296 0.0127,0 0.0381,-0.008 0.2413,-0.0931 0.6477,-0.3683 0.30903,-0.20743 0.51647,-0.38946 -0.008,0.0593 -0.0296,0.15663 -0.0169,0.0974 -0.0508,0.2413 -0.0762,0.3302 -0.14393,0.51647 z m -4.356096,2.25213 q 0.2794,-0.70273 1.659465,-1.33773 1.155701,-0.52917 2.679701,-0.84244 -0.18627,0.56727 -0.42334,1.07527 -0.23283,0.51223 -0.51646,0.97366 -0.93133,1.49014 -1.947334,1.52824 -0.588433,0.0254 -1.058332,-0.33444 -0.448733,-0.34713 -0.448733,-0.79163 0,-0.072 0.01693,-0.1397 0.0127,-0.0635 0.0381,-0.13123 z"
         style="font-family:Scriptina;-inkscape-font-specification:Scriptina;stroke:#b2a2bb;stroke-opacity:1"
         id="path40149" />
      <path
         d="m 104.18728,108.70422 q 0.0169,0.23283 0.34713,0.5334 0.33444,0.32596 0.6604,0.3175 0.16087,-0.008 0.30903,-0.14394 0.15664,-0.13123 0.22014,-0.32596 1.04986,0.55033 1.8161,0.82126 0.77046,0.27094 1.2573,0.25824 0.10583,-0.004 0.21166,-0.0169 0.11007,-0.0127 0.22013,-0.0466 0.0974,-0.0254 0.16087,-0.055 0.0635,-0.0254 0.1016,-0.0466 0.11853,-0.0889 0.2159,-0.31327 0.0931,-0.23283 0.0931,-0.4191 0,-0.0762 -0.0254,-0.0762 -0.0169,0 -0.0296,0.072 -0.008,0.1016 -0.0381,0.19896 -0.0254,0.1016 -0.0677,0.18627 -0.0423,0.0889 -0.0974,0.16087 -0.0508,0.072 -0.10583,0.1143 -0.26247,0.2032 -0.6477,0.19473 -0.49107,-0.0127 -1.20227,-0.28787 -0.254,-0.1016 -0.53763,-0.23283 -0.2794,-0.13123 -0.59267,-0.29633 -0.16933,-0.0931 -0.33866,-0.18627 -0.1651,-0.0931 -0.33444,-0.18203 0.1524,-0.38524 0.254,-0.635 0.10584,-0.24977 0.1651,-0.37677 0.41064,-0.89746 0.7366,-1.26153 0.30057,-0.33867 0.56727,-0.31327 0.20743,0.0169 0.41487,0.22014 0.10583,0.1016 0.18626,0.22013 0.0804,0.1143 0.13124,0.24977 0.0169,0.0466 0.0423,0.0466 0.0254,0 0.0254,-0.0381 0,-0.008 -0.004,-0.0169 -0.004,-0.0127 -0.008,-0.0254 -0.1143,-0.3556 -0.32173,-0.5461 -0.2032,-0.1905 -0.4572,-0.18203 -0.0847,0 -0.18204,0.0339 -0.0974,0.0339 -0.21166,0.0931 -0.0931,0.055 -0.15664,0.1016 -0.0635,0.0466 -0.11006,0.0931 -0.16087,0.16933 -0.3429,0.47836 -0.18204,0.30904 -0.381,0.76624 -0.16934,0.3683 -0.42334,1.04986 -0.25823,-0.12276 -0.39793,-0.18626 -0.1397,-0.0635 -0.1651,-0.0762 -0.40216,-0.1651 -0.61806,-0.1651 -0.0212,0 -0.0466,0.004 -0.0254,0 -0.0466,0.004 -0.0339,0.008 -0.0677,0.0296 -0.0339,0.0212 -0.0804,0.055 -0.10584,0.0847 -0.0974,0.14817 z m 1.01176,0.79586 q -0.2159,-0.004 -0.46989,-0.2032 -0.27094,-0.21166 -0.38947,-0.49106 -0.0212,-0.055 -0.0212,-0.0931 0,-0.1143 0.16087,-0.0931 0.38947,0.0593 1.16416,0.4318 -0.13123,0.4572 -0.4445,0.44873 z"
         style="font-family:Scriptina;-inkscape-font-specification:Scriptina;stroke:#b2a2bb;stroke-opacity:1"
         id="path40151" />
      <path
         d="m 108.00151,109.28842 q 0,-0.22437 -0.0339,-0.25824 -0.0169,-0.008 -0.0254,-0.008 -0.0212,0 -0.0508,0.008 -0.0296,0.008 -0.0593,0.0212 -0.0296,0.0127 -0.055,0.0296 -0.0212,0.0127 -0.0254,0.0254 -0.0127,0.0169 0,0.127 0.0169,0.0974 0.0296,0.11854 0.0127,0.0169 0.0381,0.0169 0.055,0 0.11853,-0.0254 0.0635,-0.0296 0.0635,-0.055 z"
         style="font-family:Scriptina;-inkscape-font-specification:Scriptina;stroke:#b2a2bb;stroke-opacity:1"
         id="path40153" />
      <path
         d="m 112.72591,107.92528 q -0.072,-0.0212 -0.13123,-0.0296 -0.055,-0.0127 -0.1016,-0.0127 -0.0466,0 -0.0931,0.0127 -0.0423,0.008 -0.0804,0.0212 -0.3175,0.127 -0.76623,0.55033 -0.49953,0.47413 -0.49953,0.75777 0,0.14393 0.15663,0.14393 0.0169,0 0.0423,-0.008 0.27094,-0.11006 0.69427,-0.4953 0.18627,-0.16086 0.3302,-0.31326 0.14393,-0.15664 0.254,-0.2921 0.0127,-0.0169 0.0254,-0.0169 0.0466,0 0.0212,0.072 -0.24553,0.6477 -0.24553,0.89323 0,0.0593 0.0127,0.11007 0.0169,0.0508 0.0381,0.0847 0.0466,0.0508 0.0931,0.0254 0.0169,-0.004 0.0339,-0.0296 0.0127,-0.0254 -0.008,-0.0339 -0.0212,-0.004 -0.0381,-0.004 -0.0169,-0.004 -0.0339,-0.008 -0.0254,-0.0296 -0.0254,-0.0466 -0.004,-0.4445 0.3937,-1.2192 0.0931,-0.18203 0.18626,-0.34713 0.0931,-0.16934 0.18627,-0.3302 0.072,0.004 0.14393,0.004 0.072,0 0.1524,0 1.62984,0 3.33163,-0.79586 0.4572,-0.21167 0.6985,-0.52494 0.2159,-0.2794 0.2159,-0.59266 0,-0.41064 -0.34713,-0.70697 -0.3683,-0.3048 -0.90593,-0.3048 -0.32597,0 -0.65617,0.11853 -0.9906,0.3429 -1.96003,1.58327 -0.0974,0.12277 -0.2032,0.27517 -0.10583,0.14816 -0.2286,0.3302 h -0.008 q -0.4191,0.0889 -0.6223,0.31326 -0.0296,0.0296 -0.0296,0.072 0,0.0677 0.0466,0.13123 0.0466,0.0593 0.10583,0.0677 0.0296,0.008 0.0593,0.0127 0.0339,0.004 0.0677,0.008 -0.072,0.12277 -0.14817,0.254 -0.0762,0.13123 -0.15663,0.27093 z m 3.10303,-3.26813 q 0.2921,-0.12276 0.60537,-0.12276 0.47413,0 0.82973,0.254 0.3556,0.2413 0.3556,0.6096 0,0.56726 -0.88053,1.07526 -1.51553,0.88053 -3.28083,0.88053 -0.072,0 -0.13124,0 -0.0593,0 -0.11853,-0.004 1.2446,-2.1082 2.62043,-2.6924 z m -4.50426,4.33917 q 0.11007,-0.27094 0.43603,-0.5969 0.1651,-0.16087 0.29634,-0.25824 0.13546,-0.0974 0.24553,-0.12276 0.055,-0.0127 0.11006,-0.0127 0.1524,0 0.1524,0.0974 0,0.0466 -0.0508,0.11007 -0.25823,0.30057 -0.52493,0.5334 -0.2667,0.23283 -0.5461,0.41487 -0.0339,0.0212 -0.0677,0.0212 -0.072,0 -0.072,-0.0931 0,-0.0508 0.0212,-0.0931 z m 1.5875,-1.68064 q -0.0931,-0.0127 -0.0931,-0.0847 0,-0.0466 0.0296,-0.0762 0.0889,-0.10583 0.22013,-0.18627 0.13123,-0.0804 0.3175,-0.13123 -0.072,0.1143 -0.1524,0.2413 -0.0762,0.12276 -0.16087,0.25823 -0.0466,-0.004 -0.0889,-0.008 -0.0381,-0.004 -0.072,-0.0127 z"
         style="font-family:Scriptina;-inkscape-font-specification:Scriptina;stroke:#b2a2bb;stroke-opacity:1"
         id="path40155" />
      <path
         d="m 114.56741,108.06075 q 0.0212,-0.0296 0.004,-0.0381 -0.0127,-0.008 -0.0339,0.0212 -0.0508,0.0466 -0.14393,0.0931 -0.0889,0.0466 -0.1778,0.055 -0.0677,0.008 -0.1651,0.0127 -0.0931,0.004 -0.2032,0.008 -0.11007,0 -0.23284,0 -0.11853,0 -0.23283,0 0.21167,-0.0339 0.37677,-0.1143 0.1651,-0.0804 0.2286,-0.19897 0.0381,-0.0635 0.0296,-0.1397 -0.004,-0.0762 -0.0423,-0.13546 -0.0339,-0.0635 -0.0974,-0.0931 -0.0635,-0.0339 -0.14393,-0.008 -0.14817,0.0593 -0.33444,0.20743 -0.18203,0.14393 -0.35136,0.34713 -0.1651,0.19897 -0.28364,0.4318 -0.1143,0.23284 -0.127,0.46567 -0.004,0.0847 0.0381,0.16087 0.0423,0.072 0.10584,0.127 0.0635,0.055 0.1397,0.0847 0.0762,0.0254 0.1397,0.0127 0.0762,-0.0127 0.15663,-0.0423 0.0847,-0.0339 0.16087,-0.072 0.0762,-0.0381 0.1397,-0.0762 0.0635,-0.0423 0.11006,-0.0762 0.0339,-0.0212 0.0169,-0.0339 -0.0169,-0.0169 -0.0508,0.004 -0.1143,0.0635 -0.27517,0.12277 -0.15663,0.0593 -0.29633,0.0804 -0.055,0.004 -0.11007,-0.004 -0.0508,-0.0127 -0.0931,-0.0423 -0.0381,-0.0339 -0.0635,-0.0931 -0.0212,-0.0593 -0.0169,-0.1524 0.004,-0.1016 0.0381,-0.19473 0.0339,-0.0974 0.0804,-0.18627 0.0466,-0.0889 0.0974,-0.1651 0.055,-0.0804 0.1016,-0.14393 0.127,0 0.29634,0 0.16933,0 0.33866,-0.004 0.16934,-0.004 0.30904,-0.008 0.14393,-0.004 0.2159,-0.0169 0.11853,-0.0169 0.21166,-0.0804 0.0974,-0.0677 0.1397,-0.1143 z m -0.68156,-0.19897 q -0.0508,0.0762 -0.1397,0.1397 -0.0847,0.0635 -0.1905,0.1143 -0.10584,0.0466 -0.22437,0.072 -0.11853,0.0254 -0.2286,0.0254 0.14393,-0.15663 0.3048,-0.30057 0.16087,-0.14816 0.3175,-0.23706 0.0635,-0.0339 0.11007,-0.0339 0.0508,-0.004 0.0762,0.0254 0.0254,0.0254 0.0212,0.0762 -0.004,0.0508 -0.0466,0.11853 z"
         style="font-family:Scriptina;-inkscape-font-specification:Scriptina;stroke:#b2a2bb;stroke-opacity:1"
         id="path40157" />
      <path
         d="m 119.97761,107.96762 q 0.1397,0.12276 0.1397,0.22436 0,0.0677 -0.13547,0.0677 -0.13547,0 -0.35137,-0.0635 0.0508,-0.2794 0.23707,-0.90594 0.055,-0.16933 0.13547,-0.41486 0.0804,-0.24977 0.1905,-0.5842 0.008,-0.0296 -0.0804,-0.0889 -0.0889,-0.0593 -0.16086,-0.0593 -0.0339,0 -0.055,0.0212 -0.12276,0.1905 -0.30903,0.42757 -0.18627,0.23706 -0.42757,0.52916 -0.44026,0.52917 -0.68579,0.7874 -0.99907,-0.2159 -1.64254,-0.2159 -0.14393,0 -0.26246,0.0127 -0.1143,0.008 -0.21167,0.0339 -0.4699,0.11853 -0.66463,0.61383 -0.0593,0.13547 -0.0847,0.26247 -0.0254,0.127 -0.0254,0.2413 0,0.2667 0.14393,0.4191 0.14817,0.1524 0.41487,0.14816 0.53763,-0.008 1.35467,-0.57573 0.2921,-0.20743 0.5334,-0.41063 0.24553,-0.20744 0.44873,-0.42334 0.28363,0.0677 0.53763,0.12277 0.254,0.055 0.4826,0.1016 -0.0212,0.18627 -0.0339,0.3429 -0.008,0.15663 -0.008,0.28787 0,0.35136 0.0677,0.49106 0.004,0.0169 0.0339,0.0169 0.0762,0 0.0847,-0.0635 0,-0.004 -0.0127,-0.0127 -0.0127,-0.008 -0.0296,-0.0169 -0.0169,-0.008 -0.0339,-0.0169 -0.0127,-0.008 -0.0127,-0.0127 -0.0296,-0.0889 -0.0296,-0.23707 0,-0.14393 0.0254,-0.3302 0.0254,-0.18626 0.072,-0.42756 0.19473,0.0381 0.30903,0.055 0.11853,0.0127 0.1651,-0.008 0.14817,-0.0508 0.12277,-0.1143 -0.055,-0.13546 -0.21167,-0.27516 -0.0127,-0.008 -0.0254,-0.0169 -0.008,-0.008 -0.0212,-0.008 -0.0254,0 -0.0169,0.0254 0,0.0296 0.0339,0.0508 z m -3.64067,-0.13124 q 0.0931,-0.0212 0.21167,-0.0296 0.11853,-0.0127 0.2667,-0.0127 0.7493,0 1.57057,0.2032 -0.45297,0.4572 -0.92287,0.8001 -0.75777,0.5334 -1.30387,0.5461 -0.12276,0.004 -0.21166,-0.0381 -0.0889,-0.0423 -0.1524,-0.12277 -0.11007,-0.1397 -0.11007,-0.37676 0,-0.2159 0.0804,-0.42757 0.0889,-0.2286 0.2286,-0.35983 0.14394,-0.13547 0.3429,-0.18204 z m 2.2225,0.0974 q 0.3302,-0.3429 0.65193,-0.7239 0.32174,-0.381 0.64347,-0.80856 0.0212,-0.0212 0.0339,-0.0296 0.0127,-0.0127 0.0339,-0.0127 0.0381,0 0.0381,0.0677 0,0.0127 -0.008,0.055 -0.38524,1.17686 -0.43604,1.6891 -0.23706,-0.0466 -0.47836,-0.10584 -0.23707,-0.0593 -0.47837,-0.13123 z"
         style="font-family:Scriptina;-inkscape-font-specification:Scriptina;stroke:#b2a2bb;stroke-opacity:1"
         id="path40159" />
      <path
         d="m 119.73631,108.88202 q 0.004,0.19896 0.0847,0.30056 0.0804,0.0974 0.2032,0.1143 0.12277,0.0169 0.27517,-0.0466 0.1524,-0.0635 0.30057,-0.19474 0.0466,-0.0423 0.0974,-0.0974 0.055,-0.055 0.0889,-0.0974 0.0339,-0.0466 0.0169,-0.0508 -0.0127,-0.008 -0.0466,0.0254 -0.0466,0.0508 -0.0931,0.0974 -0.0423,0.0423 -0.0974,0.0847 -0.1016,0.0762 -0.22013,0.127 -0.1143,0.0466 -0.2159,0.0339 -0.0974,-0.0127 -0.1651,-0.1016 -0.0635,-0.0889 -0.055,-0.28787 0.004,-0.17356 0.0508,-0.38946 0.0508,-0.22014 0.12277,-0.4191 0.64347,-0.12277 1.26153,-0.29634 0.6223,-0.17356 1.22767,-0.4064 1.76106,-0.66463 2.16323,-1.43086 0.072,-0.14817 0.0931,-0.31327 0.0423,-0.508 -0.4318,-0.90593 -0.46566,-0.40217 -1.08373,-0.3683 -1.79493,0.1143 -3.36126,3.66606 v 0.0127 q -0.10584,0.24554 -0.1651,0.48684 -0.0593,0.23706 -0.0508,0.4572 z m 4.91066,-3.1496 q -0.35137,0.7112 -1.7907,1.34196 -0.60537,0.2667 -1.29117,0.47414 -0.68579,0.20743 -1.46049,0.3683 0.0127,-0.0212 0.0212,-0.0423 0.008,-0.0212 0.0169,-0.0423 h -0.004 q 0.23284,-0.54187 0.50377,-1.0287 0.27093,-0.49106 0.59267,-0.93556 1.05409,-1.4859 2.07856,-1.53247 0.60537,-0.0212 1.0287,0.33443 0.42333,0.3429 0.37677,0.79164 -0.008,0.072 -0.0254,0.1397 -0.0169,0.0635 -0.0466,0.13123 z"
         style="font-family:Scriptina;-inkscape-font-specification:Scriptina;stroke:#b2a2bb;stroke-opacity:1"
         id="path40161" />
      <path
         d="m 121.15447,107.98455 q 0,0 0,0 0.004,-0.004 0.004,-0.008 -0.004,0.0127 -0.0127,0.0296 v -0.008 l -0.004,0.004 q 0,0.004 -0.004,0.008 -0.004,0 -0.004,0.004 0,0 0,0.0127 -0.004,0.0212 -0.0127,0.0212 -0.15664,0.36407 -0.27517,0.64347 -0.11853,0.2794 -0.2032,0.47413 -0.0423,0.0593 -0.0593,0.1016 0,0.0339 0.0212,0.0635 0.0254,0.0296 0.0593,0.0381 0.0169,0.008 0.0254,0.008 0.43603,0.008 0.95673,-0.3048 0.51646,-0.30904 0.762,-0.71967 0.0169,-0.0339 0.0296,-0.0635 0.0127,-0.0339 0.0212,-0.0635 0.004,-0.15663 -0.1397,-0.15663 -0.0508,0 -0.0847,0.0169 -0.12277,0.0508 -0.31327,0.16087 -0.18626,0.10583 -0.44026,0.27516 -0.20743,0.13547 -0.34713,0.23284 -0.1397,0.0931 -0.21167,0.16086 0.0169,-0.0508 0.0339,-0.11006 0.0212,-0.0635 0.055,-0.13547 0.0847,-0.2413 0.15663,-0.41063 0.072,-0.16934 0.13124,-0.2794 0.64346,-0.12277 1.26576,-0.29634 0.6223,-0.17356 1.2319,-0.4064 1.75683,-0.66463 2.159,-1.43086 0.0804,-0.16087 0.0931,-0.31327 0.0508,-0.50376 -0.42757,-0.90593 -0.46989,-0.40217 -1.08373,-0.3683 -1.7907,0.1143 -3.36549,3.66606 v 0.0296 q 0.0169,-0.0339 0.008,-0.0254 -0.004,0.008 -0.0127,0.0339 -0.004,0.004 -0.0127,0.0212 z m 4.7117,-2.25213 q -0.35137,0.7112 -1.78647,1.34196 -1.20226,0.52494 -2.75589,0.84244 0.47413,-1.13877 1.13029,-2.04893 1.0541,-1.4859 2.0828,-1.53247 0.60114,-0.0212 1.0287,0.33443 0.41487,0.33867 0.37677,0.79164 -0.0127,0.072 -0.0296,0.1397 -0.0169,0.0635 -0.0466,0.13123 z m -4.88103,3.2004 q 0.0974,-0.072 0.23283,-0.17357 0.13547,-0.1016 0.32173,-0.22437 0.4572,-0.3048 0.55034,-0.3048 0.1016,0 0.0931,0.13124 l -0.0169,0.0677 q -0.11007,0.26247 -0.4572,0.51647 -0.1651,0.11853 -0.32597,0.19896 -0.15663,0.0762 -0.3175,0.11007 -0.1524,0.0296 -0.19473,0.0169 -0.0339,-0.004 -0.0212,-0.0635 l -0.004,-0.0169 q 0.004,-0.004 0.004,-0.008 0,-0.004 0.004,-0.008 0,-0.004 -0.004,-0.004 0,0 0,-0.004 0.0339,-0.14817 0.13547,-0.23283 z"
         style="font-family:Scriptina;-inkscape-font-specification:Scriptina;stroke:#b2a2bb;stroke-opacity:1"
         id="path40163" />
      <path
         d="m 122.289,109.30958 q 0.2667,-0.15663 0.63924,-0.4699 0.18626,-0.16086 0.32596,-0.29633 0.14394,-0.13547 0.24553,-0.25823 0.008,-0.008 0.0127,-0.008 0.0339,0 0.004,0.0466 -0.072,0.11006 -0.14393,0.2413 -0.0677,0.13123 -0.1397,0.28363 -0.0593,0.127 -0.11854,0.2921 -0.0593,0.1651 -0.11006,0.3302 -0.0508,0.16933 -0.0847,0.3175 -0.0296,0.14817 -0.0339,0.23707 -0.004,0.11006 0.0254,0.19473 0.0339,0.0889 0.1143,0.13547 0.0677,0.0466 0.1524,0.0762 0.0847,0.0339 0.18627,0.0339 0.0677,0 0.127,-0.0127 0.0593,-0.008 0.11853,-0.0296 0.11853,-0.0423 0.25823,-0.13547 0.14394,-0.0931 0.32174,-0.23706 0.1905,-0.16087 0.32596,-0.32174 0.1397,-0.16086 0.23707,-0.3048 0.0169,-0.0296 0.0169,-0.0466 0,-0.008 -0.004,-0.0127 -0.0127,0 -0.0508,0.0423 -0.1016,0.13123 -0.2413,0.2794 -0.13547,0.14817 -0.30903,0.28787 -0.35984,0.28786 -0.5842,0.36406 -0.14817,0.0508 -0.30057,0.0508 -0.1524,0 -0.2413,-0.072 -0.0889,-0.0677 -0.0889,-0.21167 0,-0.0212 0,-0.0423 0,-0.0169 0.004,-0.0381 0.0169,-0.12277 0.0677,-0.30057 0.0508,-0.1778 0.11853,-0.37253 0.072,-0.19897 0.15664,-0.38947 0.0847,-0.19473 0.17356,-0.3429 0.1143,-0.1905 0.23283,-0.37253 0.12277,-0.18627 0.24554,-0.37677 0.004,-0.008 -0.008,-0.0296 -0.0127,-0.0212 -0.0296,-0.0212 -0.0169,0 -0.0254,0.008 -0.0339,0.0423 -0.11007,0.055 -0.008,0.004 -0.0804,-0.004 -0.0508,-0.0169 -0.1016,-0.0254 -0.0508,-0.0127 -0.1016,-0.0127 -0.0466,0 -0.0931,0.0127 -0.0423,0.008 -0.0804,0.0212 -0.1651,0.0677 -0.3556,0.2032 -0.1905,0.13124 -0.4064,0.34714 -0.4699,0.4699 -0.4699,0.77046 0,0.14817 0.10584,0.14817 0.0423,0 0.0974,-0.0339 z m 0.0677,-0.35983 q 0.0593,-0.13547 0.15663,-0.28363 0.1016,-0.14817 0.24553,-0.30904 0.3048,-0.33443 0.50377,-0.38523 0.0508,-0.0127 0.0974,-0.0127 0.0847,0 0.13969,0.0423 0.055,0.0381 0.055,0.0847 0,0.0169 -0.0127,0.0296 -0.30057,0.35984 -0.56303,0.61384 -0.26247,0.24976 -0.49954,0.39793 -0.0339,0.0212 -0.0635,0.0212 -0.0762,0 -0.0762,-0.1016 0,-0.0508 0.0169,-0.0974 z"
         style="font-family:Scriptina;-inkscape-font-specification:Scriptina;stroke:#b2a2bb;stroke-opacity:1"
         id="path40165" />
    </g>
  </g>
</svg>
